<?xml version="1.0" encoding="UTF-8" standalone="no"?>
<svg
   xmlns:dc="http://purl.org/dc/elements/1.1/"
   xmlns:cc="http://creativecommons.org/ns#"
   xmlns:rdf="http://www.w3.org/1999/02/22-rdf-syntax-ns#"
   xmlns:svg="http://www.w3.org/2000/svg"
   xmlns="http://www.w3.org/2000/svg"
   id="svg1502"
   version="1.1"
   viewBox="0 0 132.5 111.00001"
   height="111.00001mm"
   width="132.5mm">
  <defs
     id="defs1496" />
  <metadata
     id="metadata1499">
    <rdf:RDF>
      <cc:Work
         rdf:about="">
        <dc:format>image/svg+xml</dc:format>
        <dc:type
           rdf:resource="http://purl.org/dc/dcmitype/StillImage" />
        <dc:title></dc:title>
      </cc:Work>
    </rdf:RDF>
  </metadata>
  <g
     transform="translate(242.59525,-150.24403)"
     id="layer1">
    <rect
       style="display:inline;fill:#ffe680;fill-rule:evenodd;stroke-width:0.245756"
       id="rect12"
       width="10"
       height="97.116676"
       x="-241.34525"
       y="164.12737" />
    <rect
       y="161.2487"
       x="-121.34524"
       height="99.995331"
       width="10.000007"
       id="rect12-7"
       style="display:inline;fill:#ffe680;fill-rule:evenodd;stroke-width:0.249372"
       ry="0" />
    <rect
       ry="0"
       style="display:inline;fill:#ffe680;fill-rule:evenodd;stroke-width:0.273812"
       id="rect12-7-5"
       width="130"
       height="10.116668"
       x="-241.34525"
       y="164.12737" />
    <rect
       style="display:inline;fill:#4d4d4d;fill-rule:evenodd;stroke-width:0.352547"
       id="rect10"
       width="132.5"
       height="16.000002"
       x="-242.59525"
       y="150.24403" />
    <rect
       ry="1"
       style="display:inline;fill:#58585f;fill-opacity:1;fill-rule:evenodd;stroke-width:0.349401"
       id="rect1098"
       width="106"
       height="15"
       x="-229.34525"
       y="193.24403" />
    <rect
       ry="1"
       y="210.24402"
       x="-229.34525"
       height="15"
       width="106"
       id="rect1100"
       style="display:inline;fill:#58585f;fill-opacity:1;fill-rule:evenodd;stroke-width:0.349401" />
    <path
       id="path1106"
       style="display:inline;fill:#58585f;fill-opacity:1;stroke-width:0.291296"
       d="m -123.42521,190.06708 -4.88968,-13.35698 c 0,0 -0.0671,-0.18296 -0.25617,-0.34163 -0.12673,-0.10634 -0.3079,-0.12443 -0.3079,-0.12443 h -94.89279 c 0,0 -0.19832,0.0352 -0.30747,0.12139 -0.17915,0.14148 -0.25189,0.33998 -0.25189,0.33998 l -4.8909,13.35937 c 0,0 -0.25505,0.571 -0.0313,0.88964 0.22375,0.31865 0.60375,0.28831 0.60375,0.28831 h 104.64885 c 0,0 0.45646,0.0383 0.59793,-0.29969 0.14148,-0.33803 -0.0225,-0.87596 -0.0225,-0.87596 z" />
  </g>
</svg>
