<?xml version="1.0" encoding="UTF-8" standalone="no"?>
<svg
   xmlns:dc="http://purl.org/dc/elements/1.1/"
   xmlns:cc="http://creativecommons.org/ns#"
   xmlns:rdf="http://www.w3.org/1999/02/22-rdf-syntax-ns#"
   xmlns:svg="http://www.w3.org/2000/svg"
   xmlns="http://www.w3.org/2000/svg"
   id="svg1502"
   version="1.1"
   viewBox="0 0 132.5 111.00001"
   height="111.00001mm"
   width="132.5mm">
  <defs
     id="defs1496" />
  <metadata
     id="metadata1499">
    <rdf:RDF>
      <cc:Work
         rdf:about="">
        <dc:format>image/svg+xml</dc:format>
        <dc:type
           rdf:resource="http://purl.org/dc/dcmitype/StillImage" />
        <dc:title></dc:title>
      </cc:Work>
    </rdf:RDF>
  </metadata>
  <g
     transform="translate(41.994061,-136.32141)"
     id="layer1">
    <rect
       style="display:inline;fill:#ffe680;fill-rule:evenodd;stroke-width:0.245756"
       id="rect12"
       width="10"
       height="97.116676"
       x="-40.744061"
       y="150.20474" />
    <rect
       y="147.32607"
       x="79.255936"
       height="99.995331"
       width="10.000007"
       id="rect12-7"
       style="display:inline;fill:#ffe680;fill-rule:evenodd;stroke-width:0.249372"
       ry="0" />
    <rect
       ry="0"
       style="display:inline;fill:#ffe680;fill-rule:evenodd;stroke-width:0.273812"
       id="rect12-7-5"
       width="130"
       height="10.116668"
       x="-40.744061"
       y="150.20474" />
    <rect
       style="display:inline;fill:#4d4d4d;fill-rule:evenodd;stroke-width:0.352547"
       id="rect10"
       width="132.5"
       height="16.000002"
       x="-41.994061"
       y="136.32141" />
    <path
       id="path998"
       style="display:inline;fill:#58585f;fill-opacity:1;stroke-width:0.262508"
       d="m 76.827876,173.61728 -4.85936,-10.91503 c 0,0 -0.0666,-0.14951 -0.25458,-0.27917 -0.12595,-0.0869 -0.306,-0.10168 -0.306,-0.10168 h -94.30443 c 0,0 -0.1971,0.0288 -0.30557,0.0992 -0.17803,0.11561 -0.25032,0.27782 -0.25032,0.27782 l -4.86058,10.91698 c 0,0 -0.25346,0.46661 -0.0311,0.727 0.22236,0.26039 0.60001,0.2356 0.60001,0.2356 h 103.99999 c 0,0 0.45364,0.0313 0.59423,-0.2449 0.1406,-0.27623 -0.0223,-0.71582 -0.0223,-0.71582 z" />
  </g>
</svg>
